# xmcd CD database file
#
# Track frame offsets:
#	150
#	19875
#	39675
#	59400
#
# Disc length: 1052 seconds
#
# Revision: 1
# Processed by: cddbd v1.5.2PL0 Copyright (c) Steve Scherf et al.
# Submitted via: CDex 1.70beta2
#
DISCID=31041a04
DTITLE=山下達郎 - 忘れないで
DYEAR=2004
DGENRE=JPop
TTITLE0=忘れないで
TTITLE1=ラッキー･ガールに花束を
TTITLE2=忘れないで(Original Karaoke)
TTITLE3=ラッキー･ガールに花束を(Original Karaoke)
EXTD=YEAR: 2004
EXTT0=
EXTT1=
EXTT2=
EXTT3=
PLAYORDER=
